HIERARCHY
ROOT mixamorig:Hips
{
	OFFSET 0.000000 201.639420 0.000000
	CHANNELS 6 Xposition Yposition Zposition Xrotation Yrotation Zrotation
	JOINT mixamorig:Spine
	{
		OFFSET 0.006200 19.524994 -2.481800
		CHANNELS 3 Xrotation Yrotation Zrotation
		JOINT mixamorig:Spine1
		{
			OFFSET -0.000900 22.835007 -2.825400
			CHANNELS 3 Xrotation Yrotation Zrotation
			JOINT mixamorig:Spine2
			{
				OFFSET -0.020600 26.552490 -3.193300
				CHANNELS 3 Xrotation Yrotation Zrotation
				JOINT mixamorig:Neck
				{
					OFFSET -0.060000 30.701813 1.352200
					CHANNELS 3 Xrotation Yrotation Zrotation
					JOINT mixamorig:Head
					{
						OFFSET -0.087200 22.547607 3.670900
						CHANNELS 3 Xrotation Yrotation Zrotation
						JOINT mixamorig:HeadTop_End
						{
							OFFSET -0.830600 40.355194 7.893500
							CHANNELS 3 Xrotation Yrotation Zrotation
							End Site
							{
								OFFSET 0.000000 30.592346 0.000000
							}
						}
						JOINT mixamorig:RightEye
						{
							OFFSET -6.302100 18.118591 16.197100
							CHANNELS 3 Xrotation Yrotation Zrotation
							End Site
							{
								OFFSET 0.000000 30.592346 0.000000
							}
						}
						JOINT mixamorig:LeftEye
						{
							OFFSET 6.741500 18.382690 16.401899
							CHANNELS 3 Xrotation Yrotation Zrotation
							End Site
							{
								OFFSET 0.000000 30.592346 0.000000
							}
						}
					}
				}
				JOINT mixamorig:LeftShoulder
				{
					OFFSET 11.924900 18.230499 1.425400
					CHANNELS 3 Xrotation Yrotation Zrotation
					JOINT mixamorig:LeftArm
					{
						OFFSET 25.435989 -0.697632 -5.229300
						CHANNELS 3 Xrotation Yrotation Zrotation
						JOINT mixamorig:LeftForeArm
						{
							OFFSET 54.684776 0.000000 0.000000
							CHANNELS 3 Xrotation Yrotation Zrotation
							JOINT mixamorig:LeftHand
							{
								OFFSET 55.098175 0.000000 0.000000
								CHANNELS 3 Xrotation Yrotation Zrotation
								JOINT mixamorig:LeftHandMiddle1
								{
									OFFSET 23.369751 0.000000 0.000000
									CHANNELS 3 Xrotation Yrotation Zrotation
									JOINT mixamorig:LeftHandMiddle2
									{
										OFFSET 6.378677 0.000000 0.000000
										CHANNELS 3 Xrotation Yrotation Zrotation
										JOINT mixamorig:LeftHandMiddle3
										{
											OFFSET 6.148331 0.000000 0.000000
											CHANNELS 3 Xrotation Yrotation Zrotation
											JOINT mixamorig:LeftHandMiddle4
											{
												OFFSET 6.582504 0.000000 0.000000
												CHANNELS 3 Xrotation Yrotation Zrotation
												End Site
												{
													OFFSET -1.168900 6.395691 1.028606
												}
											}
										}
									}
								}
								JOINT mixamorig:LeftHandThumb1
								{
									OFFSET 7.235672 -3.848206 5.434273
									CHANNELS 3 Xrotation Yrotation Zrotation
									JOINT mixamorig:LeftHandThumb2
									{
										OFFSET 6.568451 -3.792297 3.792300
										CHANNELS 3 Xrotation Yrotation Zrotation
										JOINT mixamorig:LeftHandThumb3
										{
											OFFSET 6.063080 -3.500519 3.500518
											CHANNELS 3 Xrotation Yrotation Zrotation
											JOINT mixamorig:LeftHandThumb4
											{
												OFFSET 4.793182 -2.767334 2.767349
												CHANNELS 3 Xrotation Yrotation Zrotation
												End Site
												{
													OFFSET 0.101639 6.054260 1.275483
												}
											}
										}
									}
								}
								JOINT mixamorig:LeftHandIndex1
								{
									OFFSET 23.101074 -0.309540 4.992809
									CHANNELS 3 Xrotation Yrotation Zrotation
									JOINT mixamorig:LeftHandIndex2
									{
										OFFSET 6.226883 0.000000 0.000000
										CHANNELS 3 Xrotation Yrotation Zrotation
										JOINT mixamorig:LeftHandIndex3
										{
											OFFSET 6.094330 0.000000 0.000000
											CHANNELS 3 Xrotation Yrotation Zrotation
											JOINT mixamorig:LeftHandIndex4
											{
												OFFSET 5.482605 0.000000 0.000000
												CHANNELS 3 Xrotation Yrotation Zrotation
												End Site
												{
													OFFSET -1.427902 5.233032 0.797164
												}
											}
										}
									}
								}
								JOINT mixamorig:LeftHandRing1
								{
									OFFSET 22.299240 0.021149 -3.964172
									CHANNELS 3 Xrotation Yrotation Zrotation
									JOINT mixamorig:LeftHandRing2
									{
										OFFSET 6.321869 0.000000 0.000000
										CHANNELS 3 Xrotation Yrotation Zrotation
										JOINT mixamorig:LeftHandRing3
										{
											OFFSET 5.899796 0.000000 0.000000
											CHANNELS 3 Xrotation Yrotation Zrotation
											JOINT mixamorig:LeftHandRing4
											{
												OFFSET 6.517899 0.000000 0.000000
												CHANNELS 3 Xrotation Yrotation Zrotation
												End Site
												{
													OFFSET -1.637299 6.232208 0.980890
												}
											}
										}
									}
								}
								JOINT mixamorig:LeftHandPinky1
								{
									OFFSET 20.463791 -0.302338 -8.562233
									CHANNELS 3 Xrotation Yrotation Zrotation
									JOINT mixamorig:LeftHandPinky2
									{
										OFFSET 6.908646 0.000000 0.000000
										CHANNELS 3 Xrotation Yrotation Zrotation
										JOINT mixamorig:LeftHandPinky3
										{
											OFFSET 4.622849 0.000000 0.000000
											CHANNELS 3 Xrotation Yrotation Zrotation
											JOINT mixamorig:LeftHandPinky4
											{
												OFFSET 5.216080 0.000000 0.000000
												CHANNELS 3 Xrotation Yrotation Zrotation
												End Site
												{
													OFFSET -0.606308 5.116241 0.814926
												}
											}
										}
									}
								}
							}
						}
					}
				}
				JOINT mixamorig:RightShoulder
				{
					OFFSET -12.001300 18.284088 1.348900
					CHANNELS 3 Xrotation Yrotation Zrotation
					JOINT mixamorig:RightArm
					{
						OFFSET -25.308500 -0.751312 -5.164599
						CHANNELS 3 Xrotation Yrotation Zrotation
						JOINT mixamorig:RightForeArm
						{
							OFFSET -54.684429 0.000000 0.000000
							CHANNELS 3 Xrotation Yrotation Zrotation
							JOINT mixamorig:RightHand
							{
								OFFSET -55.150291 0.000000 0.000000
								CHANNELS 3 Xrotation Yrotation Zrotation
								JOINT mixamorig:RightHandMiddle1
								{
									OFFSET -23.317566 0.000000 0.000000
									CHANNELS 3 Xrotation Yrotation Zrotation
									JOINT mixamorig:RightHandMiddle2
									{
										OFFSET -6.378403 0.000000 0.000000
										CHANNELS 3 Xrotation Yrotation Zrotation
										JOINT mixamorig:RightHandMiddle3
										{
											OFFSET -6.148193 0.000000 0.000000
											CHANNELS 3 Xrotation Yrotation Zrotation
											JOINT mixamorig:RightHandMiddle4
											{
												OFFSET -6.583389 0.000000 0.000000
												CHANNELS 3 Xrotation Yrotation Zrotation
												End Site
												{
													OFFSET 1.171692 6.395905 1.029786
												}
											}
										}
									}
								}
								JOINT mixamorig:RightHandThumb1
								{
									OFFSET -7.190521 -3.860474 5.435846
									CHANNELS 3 Xrotation Yrotation Zrotation
									JOINT mixamorig:RightHandThumb2
									{
										OFFSET -6.567429 -3.791718 3.791708
										CHANNELS 3 Xrotation Yrotation Zrotation
										JOINT mixamorig:RightHandThumb3
										{
											OFFSET -6.062469 -3.500153 3.500166
											CHANNELS 3 Xrotation Yrotation Zrotation
											JOINT mixamorig:RightHandThumb4
											{
												OFFSET -4.792618 -2.767029 2.767022
												CHANNELS 3 Xrotation Yrotation Zrotation
												End Site
												{
													OFFSET -0.100327 6.053253 1.276754
												}
											}
										}
									}
								}
								JOINT mixamorig:RightHandIndex1
								{
									OFFSET -23.048981 -0.310791 4.992554
									CHANNELS 3 Xrotation Yrotation Zrotation
									JOINT mixamorig:RightHandIndex2
									{
										OFFSET -6.227539 0.000000 0.000000
										CHANNELS 3 Xrotation Yrotation Zrotation
										JOINT mixamorig:RightHandIndex3
										{
											OFFSET -6.095047 0.000000 0.000000
											CHANNELS 3 Xrotation Yrotation Zrotation
											JOINT mixamorig:RightHandIndex4
											{
												OFFSET -5.484772 0.000000 0.000000
												CHANNELS 3 Xrotation Yrotation Zrotation
												End Site
												{
													OFFSET 1.420593 5.237305 0.797056
												}
											}
										}
									}
								}
								JOINT mixamorig:RightHandRing1
								{
									OFFSET -22.246323 0.020569 -3.963762
									CHANNELS 3 Xrotation Yrotation Zrotation
									JOINT mixamorig:RightHandRing2
									{
										OFFSET -6.322128 0.000000 0.000000
										CHANNELS 3 Xrotation Yrotation Zrotation
										JOINT mixamorig:RightHandRing3
										{
											OFFSET -5.900024 0.000000 0.000000
											CHANNELS 3 Xrotation Yrotation Zrotation
											JOINT mixamorig:RightHandRing4
											{
												OFFSET -6.518356 0.000000 0.000000
												CHANNELS 3 Xrotation Yrotation Zrotation
												End Site
												{
													OFFSET 1.636398 6.232697 0.982186
												}
											}
										}
									}
								}
								JOINT mixamorig:RightHandPinky1
								{
									OFFSET -20.411011 -0.303314 -8.561701
									CHANNELS 3 Xrotation Yrotation Zrotation
									JOINT mixamorig:RightHandPinky2
									{
										OFFSET -6.907349 0.000000 0.000000
										CHANNELS 3 Xrotation Yrotation Zrotation
										JOINT mixamorig:RightHandPinky3
										{
											OFFSET -4.623840 0.000000 0.000000
											CHANNELS 3 Xrotation Yrotation Zrotation
											JOINT mixamorig:RightHandPinky4
											{
												OFFSET -5.218353 0.000000 0.000000
												CHANNELS 3 Xrotation Yrotation Zrotation
												End Site
												{
													OFFSET 0.602097 5.118835 0.816273
												}
											}
										}
									}
								}
							}
						}
					}
				}
			}
		}
	}
	JOINT mixamorig:LeftUpLeg
	{
		OFFSET 18.168400 -13.561905 -0.039000
		CHANNELS 3 Xrotation Yrotation Zrotation
		JOINT mixamorig:LeftLeg
		{
			OFFSET 0.577358 -80.825211 -3.695000
			CHANNELS 3 Xrotation Yrotation Zrotation
			JOINT mixamorig:LeftFoot
			{
				OFFSET -0.577356 -83.370262 -6.520700
				CHANNELS 3 Xrotation Yrotation Zrotation
				JOINT mixamorig:LeftToeBase
				{
					OFFSET 0.750401 -20.798306 25.135401
					CHANNELS 3 Xrotation Yrotation Zrotation
					JOINT mixamorig:LeftToe_End
					{
						OFFSET -0.000500 0.001200 19.917799
						CHANNELS 3 Xrotation Yrotation Zrotation
						End Site
						{
							OFFSET 0.000000 19.917805 0.000000
						}
					}
				}
			}
		}
	}
	JOINT mixamorig:RightUpLeg
	{
		OFFSET -18.162500 -13.585098 -0.041000
		CHANNELS 3 Xrotation Yrotation Zrotation
		JOINT mixamorig:RightLeg
		{
			OFFSET -0.595024 -80.945297 -3.631900
			CHANNELS 3 Xrotation Yrotation Zrotation
			JOINT mixamorig:RightFoot
			{
				OFFSET 0.595024 -83.218193 -6.561200
				CHANNELS 3 Xrotation Yrotation Zrotation
				JOINT mixamorig:RightToeBase
				{
					OFFSET -0.753601 -20.807106 25.115000
					CHANNELS 3 Xrotation Yrotation Zrotation
					JOINT mixamorig:RightToe_End
					{
						OFFSET 0.000299 0.001700 19.918200
						CHANNELS 3 Xrotation Yrotation Zrotation
						End Site
						{
							OFFSET 0.000000 19.918203 0.000000
						}
					}
				}
			}
		}
	}
}
MOTION
Frames: 4
Frame Time: 0.033333
9.609612 248.668442 -16.521217 16.293176 2.149430 -5.589382 12.675726 2.640363 0.096693 4.775224 1.734538 0.795898 4.759610 1.730859 0.659371 18.892110 -2.434473 -3.480467 -32.079073 -12.052982 4.724307 0.000001 0.000000 -0.000000 0.000001 0.000000 -0.000000 0.000001 0.000000 -0.000000 3.423952 -2.884546 26.006596 -8.967261 -27.511488 18.998484 -0.000006 -50.370845 -0.000005 -36.019167 -18.528572 24.651696 -0.082779 1.814636 -8.565081 0.279638 1.790051 -17.756337 0.312156 1.888501 -18.769362 0.000001 -0.000002 0.000001 -2.482949 -3.790590 2.823259 0.398347 1.622036 15.209479 -20.197793 -15.046613 5.148929 0.000003 -0.000001 -0.000003 -0.366349 -15.221425 -3.746362 0.258173 1.721624 -17.055826 0.053270 0.789086 -7.723947 -0.000003 0.000003 0.000001 2.299775 11.592147 -14.394933 0.393986 2.113940 -21.112439 0.289682 1.821104 -18.075110 -0.000000 -0.000000 0.000003 7.902652 23.606857 -21.069086 0.269572 1.758306 -17.431288 0.242623 1.670125 -16.530437 0.000001 0.000001 -0.000001 5.390571 13.391220 -30.425604 -20.084130 -21.247276 12.575682 0.000002 37.291832 -0.000004 -13.022711 2.493848 -19.686936 -0.230508 -1.409742 11.729609 0.101883 -0.969834 11.993695 0.119777 -1.050504 13.008531 0.000003 0.000003 -0.000001 -4.741385 9.162730 -0.801110 15.231074 -2.885509 -20.801244 -16.578589 -0.923230 -20.825358 0.000000 0.000001 -0.000001 -3.265502 18.349973 10.165857 0.122759 -1.063315 13.170212 0.011478 -0.327099 4.018583 0.000001 -0.000001 -0.000001 1.758801 -8.824977 16.001489 0.246495 -1.496526 18.705436 0.172767 -1.257990 15.638703 -0.000001 -0.000000 0.000001 6.821037 -19.298799 22.464082 0.180893 -1.286676 16.004897 0.161809 -1.218179 15.131613 -0.000001 0.000003 0.000001 -98.426475 3.415839 20.649233 105.184941 3.319486 0.378304 -3.011799 -0.277570 2.222793 -5.955472 -0.000008 0.000001 -0.000001 -0.000001 0.000001 -123.499642 6.096918 -9.185998 124.017193 -2.670478 0.106794 0.082920 -0.950759 6.295894 -8.738328 -0.000000 0.000002 0.000000 -0.000000 -0.000000 
10.859660 243.727295 -14.079739 14.269362 0.069134 -5.709260 11.993293 4.017440 1.080275 4.503656 2.117868 1.284018 4.498391 2.128145 1.147963 18.928754 -2.724388 -3.619613 -30.158506 -11.603422 3.398323 0.000001 -0.000000 -0.000000 0.000001 -0.000000 -0.000000 0.000001 -0.000000 -0.000000 3.009290 -0.348733 27.917116 -2.294465 -24.207191 14.429027 0.000008 -55.080944 0.000000 -33.106733 -22.287479 27.612355 -0.086743 1.706482 -8.111771 0.280534 1.792844 -17.785000 0.313108 1.891316 -18.798359 -0.000001 -0.000000 0.000002 -2.466485 -3.741036 2.840352 2.547932 2.149620 14.222307 -20.779628 -17.382551 2.995882 -0.000002 0.000000 -0.000000 -0.201871 -13.771956 -5.104462 0.268497 1.754891 -17.396082 0.057997 0.823209 -8.060290 -0.000000 -0.000003 -0.000002 2.229193 11.556005 -13.970802 0.385843 2.092765 -20.890619 0.282717 1.799618 -17.854533 -0.000000 -0.000001 -0.000002 7.367739 23.328397 -19.965772 0.273545 1.770898 -17.560119 0.246389 1.682699 -16.658818 -0.000003 -0.000002 -0.000002 5.615166 14.800955 -29.922038 -18.118281 -19.323628 10.981185 0.000002 37.939802 -0.000000 -12.231358 4.076569 -22.306271 -0.286831 -1.110600 11.599982 0.097484 -0.948917 11.731264 0.115190 -1.030466 12.756124 0.000001 0.000005 0.000001 -4.578476 8.748775 -0.962625 15.024220 -3.669125 -20.991953 -16.884409 0.315261 -23.796698 -0.000002 -0.000001 -0.000003 -3.215117 18.427075 9.932126 0.099175 -0.956961 11.832644 0.006212 -0.240721 2.956315 0.000001 0.000000 -0.000001 1.366724 -7.343243 16.602423 0.197113 -1.341898 16.711707 0.131370 -1.099472 13.626619 0.000000 0.000000 -0.000002 6.435024 -18.065997 23.108644 0.139501 -1.132499 14.044020 0.122941 -1.064114 13.180156 0.000001 -0.000002 0.000001 -84.396522 5.289775 23.393034 89.652865 3.069951 -1.375586 1.244268 -0.380802 0.115333 -5.537465 -0.000014 -0.000002 -0.000000 -0.000002 0.000001 -124.918928 3.069874 -7.965928 128.300254 -4.800503 -0.804330 2.825430 -1.007049 5.533322 -9.983069 0.000008 0.000001 -0.000000 0.000000 -0.000000 
12.711103 238.342758 -11.110836 12.300822 -1.596603 -5.872740 10.924429 4.899676 2.446065 4.028746 2.357120 1.669497 4.024593 2.387542 1.536169 19.391370 -2.891230 -3.544937 -27.087758 -10.843552 2.256276 0.000002 0.000000 -0.000000 0.000002 0.000000 -0.000000 0.000002 0.000000 -0.000000 2.261476 2.642316 29.073810 3.814077 -22.071437 8.194638 -0.000031 -62.203831 -0.000022 -26.415046 -25.292904 33.659852 -0.124109 1.093473 -6.762061 0.281991 1.797375 -17.831541 0.314699 1.896007 -18.846548 0.000002 -0.000001 0.000002 -2.496532 -3.832785 2.808018 4.351635 1.066236 13.188635 -21.152288 -18.622688 2.238950 0.000000 -0.000000 -0.000001 -0.068946 -13.513971 -5.342404 0.281559 1.796045 -17.817763 0.064178 0.865670 -8.479107 -0.000001 -0.000001 -0.000002 2.131807 11.636537 -13.155016 0.383481 2.086561 -20.825797 0.280691 1.793340 -17.790145 0.000001 0.000001 -0.000000 7.119417 23.209901 -19.553460 0.290717 1.824269 -18.107711 0.262652 1.736178 -17.204483 -0.000002 0.000002 0.000002 5.803947 16.028350 -29.722319 -12.066777 -18.629811 11.129585 -0.000001 40.664627 0.000006 -9.481673 4.538336 -26.592517 -0.390406 -0.511644 11.244717 0.087864 -0.901352 11.135355 0.105028 -0.984512 12.178224 0.000003 0.000005 -0.000001 -4.352742 8.163616 -1.188889 14.677583 -4.849463 -20.580996 -17.090943 1.140683 -26.185103 -0.000003 0.000001 0.000003 -2.584194 18.261272 8.223083 0.073565 -0.825384 10.186291 0.001746 -0.127598 1.566627 0.000001 -0.000002 -0.000000 0.981843 -6.257551 15.503799 0.148677 -1.168557 14.501076 0.092196 -0.923128 11.408050 0.000001 0.000001 -0.000001 5.832887 -18.005531 21.140955 0.091507 -0.919615 11.364226 0.080173 -0.861339 10.635200 -0.000001 -0.000002 0.000001 -70.024629 8.026224 23.158818 70.215137 -0.272415 -3.065181 8.998192 -0.813701 -3.096891 -5.661476 -0.000009 -0.000003 0.000001 0.000000 -0.000000 -117.132786 1.281006 -8.129184 127.031724 -5.593614 -0.152502 6.390166 -0.808856 5.812675 -10.513586 -0.000008 0.000001 0.000001 -0.000001 0.000001 
14.791427 231.696091 -6.612694 10.166680 -2.420021 -6.170684 9.509194 5.535963 3.843256 3.380000 2.557932 1.888831 3.370651 2.605884 1.760185 20.110121 -2.989984 -3.069993 -22.935070 -10.471827 1.705437 0.000001 -0.000001 0.000000 0.000001 -0.000001 0.000000 0.000001 -0.000001 0.000000 1.437177 5.474262 28.619879 8.127327 -19.776676 0.986501 0.000007 -71.807090 0.000005 -18.702164 -26.957293 40.628725 -0.153460 0.613149 -6.151464 0.285324 1.807662 -17.937327 0.318261 1.906418 -18.953968 0.000002 0.000000 0.000004 -2.550926 -3.995822 2.751707 3.842152 -0.889789 13.222177 -21.261821 -18.644246 2.341094 0.000000 -0.000000 -0.000001 -0.313786 -14.407089 -5.250380 0.290300 1.822959 -18.094365 0.068416 0.893681 -8.755507 -0.000001 -0.000001 0.000003 2.226019 11.884335 -13.375039 0.395244 2.117196 -21.146566 0.290829 1.824619 -18.111363 -0.000001 -0.000001 -0.000004 7.380773 23.534974 -20.011662 0.314270 1.894736 -18.833514 0.285058 1.806890 -17.929180 0.000000 -0.000003 -0.000001 5.870811 16.729321 -29.432894 -3.238041 -20.598606 13.617442 -0.000010 45.838899 0.000010 -7.232116 3.880845 -31.259590 -0.366638 -0.089150 9.289037 0.070078 -0.805721 9.941153 0.085662 -0.890099 10.994606 0.000002 0.000001 -0.000000 -4.081228 7.440981 -1.465133 14.264118 -6.367199 -19.614288 -17.202149 0.542323 -27.017315 -0.000004 0.000000 0.000001 -1.520681 17.028509 5.489628 0.045730 -0.651717 8.026870 0.000221 0.045738 -0.561227 0.000001 -0.000001 0.000000 0.732231 -6.113451 11.370554 0.107892 -0.997670 12.343450 0.060804 -0.750870 9.258295 -0.000001 0.000001 -0.000001 4.645578 -18.945623 15.392924 0.055236 -0.715948 8.823989 0.049181 -0.675769 8.325095 0.000001 0.000004 -0.000000 -54.231856 9.486913 19.354156 48.398799 -3.207614 -2.739476 18.302853 -2.025088 -8.436339 -5.075080 0.000007 -0.000009 0.000001 0.000001 -0.000002 -101.665003 0.535833 -9.235554 120.419336 -6.189056 1.349830 9.556616 -0.379160 6.943406 -9.444336 -0.000009 -0.000001 -0.000000 0.000001 -0.000000 
